<svg width="16" height="17" viewBox="0 0 16 17" fill="none" xmlns="http://www.w3.org/2000/svg">
<g id="IMAGE" clip-path="url(#clip0_1_788)">
<g id="surface17325343">
<path id="Vector" d="M7.99997 0.442383C3.65712 0.442383 0.114258 3.98524 0.114258 8.3281C0.114258 12.671 3.65712 16.2138 7.99997 16.2138C12.3428 16.2138 15.8857 12.671 15.8857 8.3281C15.8857 3.98524 12.3428 0.442383 7.99997 0.442383ZM7.99997 1.69953C9.71426 1.69953 11.2 2.38524 12.3428 3.29953C12.2285 3.5281 12 3.64238 11.7714 3.98524C11.2 4.55667 10.2857 5.24238 8.91426 5.69953C7.99997 3.98524 7.08569 2.7281 6.51426 1.9281C6.9714 1.81381 7.54283 1.69953 7.99997 1.69953ZM5.25712 2.38524C5.71426 3.07095 6.74283 4.3281 7.65711 6.15667C5.02854 6.84238 2.51426 6.95667 1.59997 6.95667C1.94283 4.89953 3.31426 3.18524 5.25712 2.38524ZM13.2571 4.3281C14.0571 5.35667 14.5143 6.7281 14.6285 8.09953C14.0571 7.98524 13.1428 7.87095 12 7.87095C11.4285 7.87095 10.7428 7.87095 10.0571 7.98524C9.94283 7.64238 9.71426 7.29953 9.48569 6.84238C10.9714 6.27095 12 5.47095 12.6857 4.89953C12.9143 4.78524 13.1428 4.55667 13.2571 4.3281ZM8.22854 7.29953C8.34283 7.64238 8.5714 7.87095 8.68569 8.21381C5.82854 9.01381 3.88569 11.4138 2.9714 12.5567C2.05712 11.5281 1.3714 9.9281 1.3714 8.3281C1.3714 8.3281 1.3714 8.3281 1.3714 8.21381C2.28569 8.21381 5.14283 8.21381 8.22854 7.29953ZM12 9.24238C13.1428 9.24238 13.9428 9.35667 14.5143 9.58524C14.1714 11.2995 13.2571 12.8995 11.7714 13.8138C11.5428 12.0995 11.0857 10.6138 10.6285 9.24238C11.0857 9.24238 11.5428 9.24238 12 9.24238ZM9.25712 9.47095C9.82854 10.9567 10.4 12.671 10.6285 14.3852C9.82854 14.7281 8.91426 14.9567 7.99997 14.9567C6.51426 14.9567 5.14283 14.4995 3.99997 13.5852C4.68569 12.671 6.62854 10.1567 9.25712 9.47095Z" fill="white"/>
</g>
</g>
<defs>
<clipPath id="clip0_1_788">
<rect width="16" height="16" fill="white" transform="translate(0 0.328125)"/>
</clipPath>
</defs>
</svg>
