<svg width="16" height="17" viewBox="0 0 16 17" fill="none" xmlns="http://www.w3.org/2000/svg">
<g id="IMAGE" clip-path="url(#clip0_1_777)">
<path id="Vector" d="M8 0.328125C5.82666 0.328125 5.55534 0.338125 4.702 0.376125C3.85 0.416125 3.27 0.550125 2.76 0.748125C2.234 0.952125 1.78734 1.22613 1.34266 1.67079C0.898 2.11546 0.623334 2.56146 0.42 3.08812C0.222 3.59812 0.0873334 4.17813 0.048 5.03013C0.008 5.88346 0 6.15479 0 8.32812C0 10.5015 0.01 10.7728 0.048 11.6261C0.088 12.4775 0.222 13.0582 0.42 13.5681C0.624 14.0935 0.898 14.5408 1.34266 14.9855C1.78734 15.4295 2.23334 15.7048 2.76 15.9081C3.27066 16.1055 3.85066 16.2408 4.702 16.2801C5.55534 16.3201 5.82666 16.3281 8 16.3281C10.1733 16.3281 10.4447 16.3181 11.298 16.2801C12.1494 16.2401 12.7301 16.1055 13.24 15.9081C13.7654 15.7041 14.2127 15.4295 14.6574 14.9855C15.1014 14.5408 15.3767 14.0954 15.58 13.5681C15.7774 13.0582 15.9127 12.4775 15.952 11.6261C15.992 10.7728 16 10.5015 16 8.32812C16 6.15479 15.9899 5.88346 15.952 5.03013C15.912 4.17879 15.7774 3.59746 15.58 3.08812C15.376 2.56212 15.1014 2.11546 14.6574 1.67079C14.2127 1.22613 13.7673 0.951459 13.24 0.748125C12.7301 0.550125 12.1494 0.415458 11.298 0.376125C10.4447 0.336125 10.1733 0.328125 8 0.328125ZM8 1.76813C10.1353 1.76813 10.39 1.77879 11.2333 1.81546C12.0134 1.85213 12.4367 1.98146 12.7179 2.09213C13.0927 2.23679 13.3579 2.41013 13.6393 2.68946C13.9186 2.96946 14.092 3.23546 14.2367 3.61013C14.3459 3.89146 14.4767 4.31479 14.512 5.09479C14.5499 5.93879 14.5586 6.19213 14.5586 8.32812C14.5586 10.4641 14.5487 10.7181 14.5094 11.5615C14.4687 12.3415 14.3386 12.7648 14.2287 13.0461C14.0793 13.4208 13.9094 13.6861 13.6294 13.9674C13.3499 14.2468 13.08 14.4201 12.7094 14.5648C12.4294 14.6741 11.9993 14.8048 11.2193 14.8401C10.37 14.8781 10.12 14.8868 7.98 14.8868C5.83934 14.8868 5.58934 14.8768 4.74066 14.8375C3.96 14.7968 3.53 14.6668 3.25 14.5568C2.87066 14.4074 2.61 14.2375 2.33066 13.9575C2.05 13.6781 1.87066 13.4081 1.73066 13.0375C1.62066 12.7575 1.49134 12.3274 1.45066 11.5475C1.42066 10.7075 1.41 10.4481 1.41 8.31813C1.41 6.18746 1.42066 5.92746 1.45066 5.07746C1.49134 4.29746 1.62066 3.86813 1.73066 3.58812C1.87066 3.20813 2.05 2.94813 2.33066 2.66746C2.61 2.38813 2.87066 2.20813 3.25 2.06879C3.53 1.95813 3.95066 1.82813 4.73066 1.78813C5.58066 1.75813 5.83066 1.74812 7.97 1.74812L8 1.76813ZM8 4.22013C5.73 4.22013 3.892 6.06013 3.892 8.32812C3.892 10.5981 5.732 12.4361 8 12.4361C10.27 12.4361 12.108 10.5961 12.108 8.32812C12.108 6.05813 10.268 4.22013 8 4.22013ZM8 10.9948C6.52666 10.9948 5.33334 9.80146 5.33334 8.32812C5.33334 6.85479 6.52666 5.66146 8 5.66146C9.47334 5.66146 10.6667 6.85479 10.6667 8.32812C10.6667 9.80146 9.47334 10.9948 8 10.9948ZM13.2306 4.05813C13.2306 4.58813 12.8 5.01813 12.2706 5.01813C11.7407 5.01813 11.3107 4.58746 11.3107 4.05813C11.3107 3.52879 11.7414 3.09879 12.2706 3.09879C12.7993 3.09813 13.2306 3.52879 13.2306 4.05813Z" fill="white"/>
</g>
<defs>
<clipPath id="clip0_1_777">
<rect width="16" height="16" fill="white" transform="translate(0 0.328125)"/>
</clipPath>
</defs>
</svg>
