<svg width="56" height="100" viewBox="0 0 56 100" fill="none" xmlns="http://www.w3.org/2000/svg">
<g id="Frame">
<path id="Rectangle" d="M0 4C0 1.79086 1.79086 0 4 0H52C54.2091 0 56 1.79086 56 4V96C56 98.2091 54.2091 100 52 100H4C1.79086 100 0 98.2091 0 96V4Z" fill="#C6100F"/>
<path id="Vector" d="M14.0392 80.9481C13.5226 80.9481 12.9927 80.7441 12.5962 80.3457C11.8013 79.5508 11.8013 78.2526 12.5962 77.4577L39.7755 50.267L12.9927 23.4841C12.1978 22.6892 12.1978 21.3911 12.9927 20.5962C13.7876 19.8013 15.0857 19.8013 15.8806 20.5962L44.1065 48.822C44.9014 49.6169 44.9014 50.9151 44.1065 51.71L15.4841 80.3457C15.0876 80.7422 14.5558 80.9481 14.0392 80.9481Z" fill="white"/>
</g>
</svg>
