<svg width="16" height="17" viewBox="0 0 16 17" fill="none" xmlns="http://www.w3.org/2000/svg">
<g id="IMAGE" clip-path="url(#clip0_1_782)">
<g id="Group">
<path id="Vector" d="M15.9694 3.37386C15.3793 3.6332 14.7494 3.80986 14.0859 3.89053C14.7619 3.4832 15.2819 2.8412 15.528 2.0752C14.8939 2.4452 14.1913 2.71453 13.4433 2.86453C12.8461 2.2252 11.9946 1.8252 11.0493 1.8252C9.238 1.8252 7.76934 3.29386 7.76934 5.1032C7.76934 5.3632 7.79934 5.6132 7.854 5.85252C5.12734 5.72386 2.71066 4.41453 1.09333 2.4352C0.808666 2.91653 0.649334 3.47586 0.649334 4.0852C0.649334 5.2252 1.22934 6.2272 2.108 6.81586C1.57 6.79853 1.064 6.65053 0.622666 6.4052V6.44586C0.622666 8.03586 1.75134 9.36186 3.25334 9.66386C2.978 9.73786 2.68734 9.77786 2.38934 9.77786C2.18 9.77786 1.97934 9.75786 1.77866 9.72052C2.19934 11.0225 3.40866 11.9719 4.848 11.9985C3.728 12.8778 2.30866 13.4018 0.78 13.4018C0.52 13.4018 0.260666 13.3865 0 13.3572C1.45934 14.2865 3.17866 14.8298 5.038 14.8298C11.074 14.8298 14.3706 9.83252 14.3706 5.50586C14.3706 5.36653 14.3706 5.22586 14.3607 5.08586C15.0014 4.62652 15.5607 4.04586 16.0007 3.3872L15.9694 3.37386Z" fill="white"/>
</g>
</g>
<defs>
<clipPath id="clip0_1_782">
<rect width="16" height="16" fill="white" transform="translate(0 0.328125)"/>
</clipPath>
</defs>
</svg>
